<?xml version="1.0" standalone="no"?>
<svg xmlns="http://www.w3.org/2000/svg" version="1.1" width="147" height="147">
	<!-- Created with https://api.qrserver.com (QR Code API, see goQR.me/api for information) -->
	<title>QR Code</title>
	<desc>Example</desc>
	<rect style="fill:rgb(255, 255, 255);fill-opacity:1" x="0" y="0" width="147" height="147" />
	<g id="elements">
		<path style="fill:rgb(0, 0, 0)" d="M 0,0 l 7,0 0,7 -7,0 z M 7,0 l 7,0 0,7 -7,0 z M 14,0 l 7,0 0,7 -7,0 z M 21,0 l 7,0 0,7 -7,0 z M 28,0 l 7,0 0,7 -7,0 z M 35,0 l 7,0 0,7 -7,0 z M 42,0 l 7,0 0,7 -7,0 z M 70,0 l 7,0 0,7 -7,0 z M 77,0 l 7,0 0,7 -7,0 z M 84,0 l 7,0 0,7 -7,0 z M 98,0 l 7,0 0,7 -7,0 z M 105,0 l 7,0 0,7 -7,0 z M 112,0 l 7,0 0,7 -7,0 z M 119,0 l 7,0 0,7 -7,0 z M 126,0 l 7,0 0,7 -7,0 z M 133,0 l 7,0 0,7 -7,0 z M 140,0 l 7,0 0,7 -7,0 z M 0,7 l 7,0 0,7 -7,0 z M 42,7 l 7,0 0,7 -7,0 z M 56,7 l 7,0 0,7 -7,0 z M 63,7 l 7,0 0,7 -7,0 z M 70,7 l 7,0 0,7 -7,0 z M 84,7 l 7,0 0,7 -7,0 z M 98,7 l 7,0 0,7 -7,0 z M 140,7 l 7,0 0,7 -7,0 z M 0,14 l 7,0 0,7 -7,0 z M 14,14 l 7,0 0,7 -7,0 z M 21,14 l 7,0 0,7 -7,0 z M 28,14 l 7,0 0,7 -7,0 z M 42,14 l 7,0 0,7 -7,0 z M 70,14 l 7,0 0,7 -7,0 z M 77,14 l 7,0 0,7 -7,0 z M 84,14 l 7,0 0,7 -7,0 z M 98,14 l 7,0 0,7 -7,0 z M 112,14 l 7,0 0,7 -7,0 z M 119,14 l 7,0 0,7 -7,0 z M 126,14 l 7,0 0,7 -7,0 z M 140,14 l 7,0 0,7 -7,0 z M 0,21 l 7,0 0,7 -7,0 z M 14,21 l 7,0 0,7 -7,0 z M 21,21 l 7,0 0,7 -7,0 z M 28,21 l 7,0 0,7 -7,0 z M 42,21 l 7,0 0,7 -7,0 z M 56,21 l 7,0 0,7 -7,0 z M 63,21 l 7,0 0,7 -7,0 z M 84,21 l 7,0 0,7 -7,0 z M 98,21 l 7,0 0,7 -7,0 z M 112,21 l 7,0 0,7 -7,0 z M 119,21 l 7,0 0,7 -7,0 z M 126,21 l 7,0 0,7 -7,0 z M 140,21 l 7,0 0,7 -7,0 z M 0,28 l 7,0 0,7 -7,0 z M 14,28 l 7,0 0,7 -7,0 z M 21,28 l 7,0 0,7 -7,0 z M 28,28 l 7,0 0,7 -7,0 z M 42,28 l 7,0 0,7 -7,0 z M 63,28 l 7,0 0,7 -7,0 z M 84,28 l 7,0 0,7 -7,0 z M 98,28 l 7,0 0,7 -7,0 z M 112,28 l 7,0 0,7 -7,0 z M 119,28 l 7,0 0,7 -7,0 z M 126,28 l 7,0 0,7 -7,0 z M 140,28 l 7,0 0,7 -7,0 z M 0,35 l 7,0 0,7 -7,0 z M 42,35 l 7,0 0,7 -7,0 z M 56,35 l 7,0 0,7 -7,0 z M 77,35 l 7,0 0,7 -7,0 z M 98,35 l 7,0 0,7 -7,0 z M 140,35 l 7,0 0,7 -7,0 z M 0,42 l 7,0 0,7 -7,0 z M 7,42 l 7,0 0,7 -7,0 z M 14,42 l 7,0 0,7 -7,0 z M 21,42 l 7,0 0,7 -7,0 z M 28,42 l 7,0 0,7 -7,0 z M 35,42 l 7,0 0,7 -7,0 z M 42,42 l 7,0 0,7 -7,0 z M 56,42 l 7,0 0,7 -7,0 z M 70,42 l 7,0 0,7 -7,0 z M 84,42 l 7,0 0,7 -7,0 z M 98,42 l 7,0 0,7 -7,0 z M 105,42 l 7,0 0,7 -7,0 z M 112,42 l 7,0 0,7 -7,0 z M 119,42 l 7,0 0,7 -7,0 z M 126,42 l 7,0 0,7 -7,0 z M 133,42 l 7,0 0,7 -7,0 z M 140,42 l 7,0 0,7 -7,0 z M 63,49 l 7,0 0,7 -7,0 z M 0,56 l 7,0 0,7 -7,0 z M 7,56 l 7,0 0,7 -7,0 z M 14,56 l 7,0 0,7 -7,0 z M 21,56 l 7,0 0,7 -7,0 z M 28,56 l 7,0 0,7 -7,0 z M 42,56 l 7,0 0,7 -7,0 z M 49,56 l 7,0 0,7 -7,0 z M 56,56 l 7,0 0,7 -7,0 z M 77,56 l 7,0 0,7 -7,0 z M 91,56 l 7,0 0,7 -7,0 z M 105,56 l 7,0 0,7 -7,0 z M 119,56 l 7,0 0,7 -7,0 z M 133,56 l 7,0 0,7 -7,0 z M 0,63 l 7,0 0,7 -7,0 z M 7,63 l 7,0 0,7 -7,0 z M 14,63 l 7,0 0,7 -7,0 z M 21,63 l 7,0 0,7 -7,0 z M 49,63 l 7,0 0,7 -7,0 z M 56,63 l 7,0 0,7 -7,0 z M 77,63 l 7,0 0,7 -7,0 z M 84,63 l 7,0 0,7 -7,0 z M 91,63 l 7,0 0,7 -7,0 z M 98,63 l 7,0 0,7 -7,0 z M 105,63 l 7,0 0,7 -7,0 z M 133,63 l 7,0 0,7 -7,0 z M 140,63 l 7,0 0,7 -7,0 z M 0,70 l 7,0 0,7 -7,0 z M 7,70 l 7,0 0,7 -7,0 z M 21,70 l 7,0 0,7 -7,0 z M 28,70 l 7,0 0,7 -7,0 z M 35,70 l 7,0 0,7 -7,0 z M 42,70 l 7,0 0,7 -7,0 z M 63,70 l 7,0 0,7 -7,0 z M 70,70 l 7,0 0,7 -7,0 z M 84,70 l 7,0 0,7 -7,0 z M 98,70 l 7,0 0,7 -7,0 z M 105,70 l 7,0 0,7 -7,0 z M 126,70 l 7,0 0,7 -7,0 z M 133,70 l 7,0 0,7 -7,0 z M 0,77 l 7,0 0,7 -7,0 z M 14,77 l 7,0 0,7 -7,0 z M 21,77 l 7,0 0,7 -7,0 z M 35,77 l 7,0 0,7 -7,0 z M 70,77 l 7,0 0,7 -7,0 z M 77,77 l 7,0 0,7 -7,0 z M 84,77 l 7,0 0,7 -7,0 z M 91,77 l 7,0 0,7 -7,0 z M 98,77 l 7,0 0,7 -7,0 z M 119,77 l 7,0 0,7 -7,0 z M 126,77 l 7,0 0,7 -7,0 z M 133,77 l 7,0 0,7 -7,0 z M 7,84 l 7,0 0,7 -7,0 z M 21,84 l 7,0 0,7 -7,0 z M 42,84 l 7,0 0,7 -7,0 z M 49,84 l 7,0 0,7 -7,0 z M 56,84 l 7,0 0,7 -7,0 z M 84,84 l 7,0 0,7 -7,0 z M 133,84 l 7,0 0,7 -7,0 z M 56,91 l 7,0 0,7 -7,0 z M 84,91 l 7,0 0,7 -7,0 z M 105,91 l 7,0 0,7 -7,0 z M 112,91 l 7,0 0,7 -7,0 z M 126,91 l 7,0 0,7 -7,0 z M 0,98 l 7,0 0,7 -7,0 z M 7,98 l 7,0 0,7 -7,0 z M 14,98 l 7,0 0,7 -7,0 z M 21,98 l 7,0 0,7 -7,0 z M 28,98 l 7,0 0,7 -7,0 z M 35,98 l 7,0 0,7 -7,0 z M 42,98 l 7,0 0,7 -7,0 z M 56,98 l 7,0 0,7 -7,0 z M 63,98 l 7,0 0,7 -7,0 z M 77,98 l 7,0 0,7 -7,0 z M 91,98 l 7,0 0,7 -7,0 z M 119,98 l 7,0 0,7 -7,0 z M 126,98 l 7,0 0,7 -7,0 z M 133,98 l 7,0 0,7 -7,0 z M 0,105 l 7,0 0,7 -7,0 z M 42,105 l 7,0 0,7 -7,0 z M 70,105 l 7,0 0,7 -7,0 z M 105,105 l 7,0 0,7 -7,0 z M 119,105 l 7,0 0,7 -7,0 z M 126,105 l 7,0 0,7 -7,0 z M 133,105 l 7,0 0,7 -7,0 z M 140,105 l 7,0 0,7 -7,0 z M 0,112 l 7,0 0,7 -7,0 z M 14,112 l 7,0 0,7 -7,0 z M 21,112 l 7,0 0,7 -7,0 z M 28,112 l 7,0 0,7 -7,0 z M 42,112 l 7,0 0,7 -7,0 z M 56,112 l 7,0 0,7 -7,0 z M 63,112 l 7,0 0,7 -7,0 z M 70,112 l 7,0 0,7 -7,0 z M 77,112 l 7,0 0,7 -7,0 z M 91,112 l 7,0 0,7 -7,0 z M 112,112 l 7,0 0,7 -7,0 z M 133,112 l 7,0 0,7 -7,0 z M 0,119 l 7,0 0,7 -7,0 z M 14,119 l 7,0 0,7 -7,0 z M 21,119 l 7,0 0,7 -7,0 z M 28,119 l 7,0 0,7 -7,0 z M 42,119 l 7,0 0,7 -7,0 z M 56,119 l 7,0 0,7 -7,0 z M 63,119 l 7,0 0,7 -7,0 z M 77,119 l 7,0 0,7 -7,0 z M 84,119 l 7,0 0,7 -7,0 z M 91,119 l 7,0 0,7 -7,0 z M 98,119 l 7,0 0,7 -7,0 z M 105,119 l 7,0 0,7 -7,0 z M 112,119 l 7,0 0,7 -7,0 z M 119,119 l 7,0 0,7 -7,0 z M 0,126 l 7,0 0,7 -7,0 z M 14,126 l 7,0 0,7 -7,0 z M 21,126 l 7,0 0,7 -7,0 z M 28,126 l 7,0 0,7 -7,0 z M 42,126 l 7,0 0,7 -7,0 z M 56,126 l 7,0 0,7 -7,0 z M 63,126 l 7,0 0,7 -7,0 z M 70,126 l 7,0 0,7 -7,0 z M 84,126 l 7,0 0,7 -7,0 z M 98,126 l 7,0 0,7 -7,0 z M 119,126 l 7,0 0,7 -7,0 z M 126,126 l 7,0 0,7 -7,0 z M 0,133 l 7,0 0,7 -7,0 z M 42,133 l 7,0 0,7 -7,0 z M 56,133 l 7,0 0,7 -7,0 z M 63,133 l 7,0 0,7 -7,0 z M 77,133 l 7,0 0,7 -7,0 z M 84,133 l 7,0 0,7 -7,0 z M 91,133 l 7,0 0,7 -7,0 z M 98,133 l 7,0 0,7 -7,0 z M 105,133 l 7,0 0,7 -7,0 z M 119,133 l 7,0 0,7 -7,0 z M 126,133 l 7,0 0,7 -7,0 z M 0,140 l 7,0 0,7 -7,0 z M 7,140 l 7,0 0,7 -7,0 z M 14,140 l 7,0 0,7 -7,0 z M 21,140 l 7,0 0,7 -7,0 z M 28,140 l 7,0 0,7 -7,0 z M 35,140 l 7,0 0,7 -7,0 z M 42,140 l 7,0 0,7 -7,0 z M 56,140 l 7,0 0,7 -7,0 z M 70,140 l 7,0 0,7 -7,0 z M 84,140 l 7,0 0,7 -7,0 z M 105,140 l 7,0 0,7 -7,0 z M 119,140 l 7,0 0,7 -7,0 z M 133,140 l 7,0 0,7 -7,0 z " />
	</g>
</svg>
